<svg xmlns="http://www.w3.org/2000/svg" version="1.1" viewBox="0.00 0.00 483.00 546.00" width="483.00" height="546.00">
<path fill="#000000" d="&#10;  M 16.13 186.42&#10;  C 38.27 121.28 84.00 66.61 144.52 33.79&#10;  C 221.60 -8.01 318.86 -8.53 396.32 31.41&#10;  Q 445.88 56.97 481.51 99.62&#10;  A 0.76 0.75 -39.9 0 1 481.41 100.69&#10;  L 450.34 126.34&#10;  A 1.49 1.49 0.0 0 1 448.26 126.16&#10;  C 376.44 42.11 256.33 19.65 160.15 74.13&#10;  C 92.60 112.38 48.90 183.55 44.65 260.94&#10;  C 40.67 333.35 72.42 403.97 128.32 450.15&#10;  C 172.39 486.57 233.59 505.84 290.72 500.83&#10;  Q 373.82 493.55 433.56 435.61&#10;  C 438.44 430.87 443.38 425.25 448.12 419.96&#10;  A 1.69 1.68 -49.2 0 1 450.46 419.78&#10;  L 481.03 445.01&#10;  Q 482.07 445.87 481.20 446.89&#10;  C 398.74 543.59 264.33 572.19 150.76 514.97&#10;  C 30.72 454.49 -27.30 314.15 16.13 186.42&#10;  Z"/>
<path fill="#4f5d71" d="&#10;  M 410.11 117.63&#10;  L 383.21 147.96&#10;  A 0.67 0.64 41.2 0 1 382.29 148.00&#10;  C 340.51 111.81 285.93 99.06 232.73 111.81&#10;  A 1.10 1.10 0.0 0 1 231.41 111.02&#10;  L 221.28 71.72&#10;  A 0.92 0.92 0.0 0 1 221.95 70.60&#10;  C 288.72 54.24 358.22 70.68 409.99 115.76&#10;  A 1.33 1.32 41.5 0 1 410.11 117.63&#10;  Z"/>
<path fill="#4f5d71" d="&#10;  M 65.53 259.98&#10;  A 0.84 0.84 0.0 0 1 64.75 259.08&#10;  C 70.92 178.27 120.40 109.76 195.58 79.23&#10;  A 0.64 0.64 0.0 0 1 196.42 79.59&#10;  L 211.30 117.00&#10;  Q 211.89 118.46 210.43 119.08&#10;  C 152.02 143.59 111.70 197.62 107.37 261.13&#10;  A 1.56 1.56 0.0 0 1 105.71 262.58&#10;  L 65.53 259.98&#10;  Z"/>
<path fill="#4f5d71" d="&#10;  M 421.75 126.49&#10;  A 1.10 1.10 0.0 0 1 421.77 128.05&#10;  L 397.01 153.60&#10;  A 5.92 2.59 -45.9 0 1 391.03 156.05&#10;  L 386.12 151.29&#10;  A 5.92 2.59 -45.9 0 1 388.38 145.23&#10;  L 413.14 119.68&#10;  A 1.10 1.10 0.0 0 1 414.70 119.66&#10;  L 421.75 126.49&#10;  Z"/>
<path fill="#1d3048" d="&#10;  M 175.82 308.93&#10;  C 203.28 384.04 300.39 399.09 351.96 339.90&#10;  A 1.27 1.26 40.3 0 1 353.73 339.76&#10;  L 384.66 365.39&#10;  Q 385.71 366.26 384.81 367.28&#10;  C 358.85 396.90 323.74 415.46 284.57 418.62&#10;  C 184.26 426.70 107.06 333.93 131.24 237.25&#10;  C 145.89 178.65 194.83 136.06 254.68 127.91&#10;  C 304.54 121.11 351.84 141.54 384.70 178.48&#10;  Q 385.80 179.72 384.53 180.77&#10;  L 354.12 205.91&#10;  A 1.68 1.68 0.0 0 1 351.79 205.72&#10;  Q 319.93 169.69 271.25 169.55&#10;  C 199.80 169.35 151.84 243.36 175.82 308.93&#10;  Z"/>
<path fill="#4f5d71" d="&#10;  M 432.57 138.27&#10;  A 1.46 1.46 0.0 0 1 432.45 140.33&#10;  L 405.96 163.86&#10;  A 5.83 2.95 -41.6 0 1 399.64 165.52&#10;  L 395.58 160.94&#10;  A 5.83 2.95 -41.6 0 1 397.98 154.87&#10;  L 424.47 131.34&#10;  A 1.46 1.46 0.0 0 1 426.53 131.47&#10;  L 432.57 138.27&#10;  Z"/>
<path fill="#4f5d71" d="&#10;  M 183.25 461.45&#10;  C 114.80 429.12 70.96 362.59 64.66 287.49&#10;  A 1.40 1.39 -4.2 0 1 65.97 285.98&#10;  L 105.75 283.43&#10;  Q 106.90 283.36 107.08 284.50&#10;  Q 107.90 289.88 108.69 295.73&#10;  C 116.19 351.48 150.72 397.95 201.14 422.75&#10;  A 1.30 1.30 0.0 0 1 201.75 424.47&#10;  L 184.53 460.99&#10;  A 0.96 0.96 0.0 0 1 183.25 461.45&#10;  Z"/>
<path fill="#4f5d71" d="&#10;  M 326.79 430.39&#10;  C 356.72 419.79 378.98 402.84 400.62 379.73&#10;  A 0.92 0.92 0.0 0 1 401.87 379.65&#10;  L 432.49 404.94&#10;  Q 433.80 406.02 432.70 407.31&#10;  Q 395.02 451.67 339.96 470.74&#10;  A 1.05 1.05 0.0 0 1 338.62 470.08&#10;  L 326.00 432.00&#10;  A 1.28 1.28 0.0 0 1 326.79 430.39&#10;  Z"/>
<path fill="#4f5d71" d="&#10;  M 209.29 471.93&#10;  A 0.37 0.37 0.0 0 1 209.04 471.47&#10;  L 218.02 440.74&#10;  A 10.29 2.05 -73.7 0 1 222.88 431.44&#10;  L 230.52 433.67&#10;  A 10.29 2.05 -73.7 0 1 229.60 444.13&#10;  L 220.61 474.86&#10;  A 0.37 0.37 0.0 0 1 220.15 475.11&#10;  L 209.29 471.93&#10;  Z"/>
<path fill="#4f5d71" d="&#10;  M 334.72 472.40&#10;  C 299.34 483.40 261.21 484.74 224.91 476.18&#10;  A 0.77 0.77 0.0 0 1 224.34 475.25&#10;  L 233.70 436.22&#10;  Q 234.05 434.75 235.54 435.03&#10;  C 251.67 438.11 268.55 439.65 284.94 438.59&#10;  C 297.90 437.75 309.48 434.92 321.70 432.09&#10;  A 1.72 1.71 -15.0 0 1 323.72 433.25&#10;  L 335.60 470.71&#10;  A 1.34 1.34 0.0 0 1 334.72 472.40&#10;  Z"/>
</svg>