<svg xmlns="http://www.w3.org/2000/svg" version="1.1" viewBox="0.00 0.00 600.00 600.00">
    <path fill="#071833" d="&#10;  M 506.832 473.553 A 270 270 280 1 1 506.832 126.447 L 474.658 153.444 A 228 228 280 1 0 474.658 446.556"/>
    <path fill="#4f5d71" d="&#10;  M 452.122 158.144 A 208 208 3 0 1 459.337 166.300 L 427.163 193.297 A 166 166 3 0 0 421.788 186.431"/>
    <path fill="#4f5d71" d="&#10;  M 441.856 147.878 A 208 208 3 0 1 449.623 155.511 L 419.410 184.687 A 166 166 3 0 0 413.212 178.595"/>
    <path fill="#4f5d71" d="&#10;  M 249.680 98.178 A 208 208 56 0 1 439.179 145.426 L 411.076 176.638 A 166 166 56 0 0 259.841 138.931"/>
    <path fill="#4f5d71" d="&#10;  M 92.507 285.491 A 208 208 56 0 1 222.082 107.146 L 237.815 146.087 A 166 166 56 0 0 134.404 288.420"/>
    <path fill="#4f5d71" d="&#10;  M 222.082 492.85 A 208 208 56 0 1 92.507 314.509 L 134.404 311.580 A 166 166 56 0 0 237.815 453.912"/>
    <path fill="#4f5d71" d="&#10;  M 260.312 504.178 A 208 208 3 0 1 249.680 501.821 L 259.841 461.069 A 166 166 3 0 0 268.325 462.950"/>
    <path fill="#4f5d71" d="&#10;  M 369.432 496.069 A 208 208 29.5 0 1 263.881 504.840 L 271.174 463.478 A 166 166 29.5 0 0 355.412 456.478"/>
    <path fill="#4f5d71" d="&#10;  M 459.337 433.700 A 208 208 29.5 0 1 372.843 494.828 L 358.134 455.488 A 166 166 29.5 0 0 427.163 406.703"/>
    <path fill="#1d3048" d="&#10;  M 411.842 393.847 A 146 146 280 1 1 411.842 206.153 L 379.669 233.150 A 104 104 280 1 0 379.669 366.850"/>
</svg>